<svg xmlns="http://www.w3.org/2000/svg" width="317" height="303"><path d="M157.938-.375h2.464C173.611-.34 186.183.586 199 4l2.176.567C205.868 5.827 210.442 7.322 215 9l2.072.761C232.756 15.64 246.982 23.405 260 34l1.71 1.387c22.736 18.56 39.257 41.918 48.728 69.738l.963 2.813c4.578 14.23 6.166 28.427 6.036 43.312l-.01 2.3c-.08 12.491-.96 24.385-4.427 36.45-.23.814-.461 1.627-.7 2.465-5.385 18.292-14.011 35.898-26.3 50.535l-2.84 3.48C256.721 278.482 218.256 298.544 177 303c-5.974.378-11.954.39-17.938.375h-2.465c-13.233-.035-25.742-1.05-38.597-4.375l-2.226-.535C91.175 292.495 68.682 279.915 50 263l-2.703-2.305C41.09 255.346 35.96 249.51 31 243l-2.434-3.145c-9.709-12.844-16.828-26.744-22.003-41.98l-.964-2.812c-4.58-14.23-6.166-28.428-6.037-43.313l.01-2.3C-.347 136.959.535 125.065 4 113c.23-.814.461-1.627.7-2.465C10.084 92.243 18.71 74.637 31 60l2.84-3.48C64.532 19.369 110.065-.49 157.937-.375z" fill="#141614"/><path d="M204 69l2 2c-7.14 4.656-14.443 6.45-23 6v5l25 1v2h-24l11 4c2.583 1.424 4.952 2.802 7.375 4.438l1.746 1.119c11.623 7.638 21.21 21.041 25.316 34.318 1.82 9.65 1.965 20.613-3.437 29.125l-2.445 2.043c-3.777 4.372-4.507 9.09-5.743 14.644l-.748 3.147A657.366 657.366 0 00215 187l-.615 2.484c-1.717 7.365-1.61 14.61-1.51 22.141l.027 3.91c.024 3.155.056 6.31.098 9.465h-2l-.148 1.793c-.417 4.398-.902 8.176-2.852 12.207l6 2v1l-11 1 2-5c1.618-5.095 2.222-9.663 2-15l-1.715.867a239.09 239.09 0 01-6.847 3.258l-2.317 1.07C194 229 194 229 191 229l-.938 2.375C189 234 189 234 188 236h-2l-1 2h-2l-2 4-3-1-.043-2.5c-.68-16.48-6.381-28.943-14.523-42.981-10.173-17.87-18.67-36.365-26.246-55.457l-1.132-2.833c-6.34-16.245-6.34-16.245-6.056-24.229h-2c-6.737 21.473 2.63 42.872 12 62 2.55 4.694 5.393 9.181 8.281 13.672 3.013 4.706 5.672 9.577 8.281 14.516l1.266 2.359c5.292 10.112 7.131 20.935 4.543 32.187-4.538 10.608-15.188 21.09-25.371 26.266l-2.438 1.25L133 266l1.207-1.574 1.606-2.113 1.582-2.075c8.685-12.109 9.134-27.047 7.328-41.445-2.95-17.782-13.356-32.998-23.037-47.802-7.504-11.663-9.138-22.612-9.186-36.304l-.019-3.575c.095-6.598.826-12.428 2.813-18.73 1.02-3.442 1.37-6.814 1.706-10.382l-4 3-2-1 1-3c0-3.908-1.506-5.116-4-8 1.975-1.975 5.665-1.782 8.375-2.188C129.042 88.805 141.515 85.907 154 83l2.792-.649c12.768-3 25.277-6.71 37.796-10.61A392.06 392.06 0 01204 69z" fill="#151613"/><path d="M116 101l2 1c-.428 4.54-1.14 8.594-2.508 12.945-4.806 17.389-3.157 38.077 5.547 53.949 2.108 3.607 4.422 7.05 6.822 10.468 14.003 20.137 20.827 40.802 17.67 65.27-1.461 6.803-4.343 11.874-8.531 17.368l-2 3 2.688-2.313c1.838-1.581 3.55-2.82 5.675-4.007 7.823-4.983 16.263-14.645 18.637-23.68 1.094-9.654.327-18.183-4-27l-.912-1.861a225.439 225.439 0 00-13.15-23.014c-5.13-7.91-8.684-16.293-12.108-25.052-.767-1.916-1.604-3.803-2.447-5.686-4.37-10.701-6.966-25.116-2.883-36.2L128 113h2l.488 2.516c6.722 30.453 22.18 59.848 37.537 86.768 6.579 11.576 10.317 22.598 10.702 36.013L179 241l2 1 .688-2.438L183 237l5-1c1.325-2.395 1.325-2.395 2-5 1.5-3 3.743-3.283 6.813-4.5 3.47-1.386 6.875-2.768 10.187-4.5 1 1 1 1 1.25 4-.075 6.07-2.488 11.681-5.25 17l1.563-.5c3.17-.65 6.21-.562 9.437-.5-.315 2.917-.601 4.57-2.625 6.75-3.194 1.681-5.774 2.121-9.375 2.25-2.438-1.438-2.438-1.438-4-3l-3 2 2.309.516c18.288 4.292 18.288 4.292 23.691 12.484v3c-7.458 2.729-16.27 4.577-24 2l-.113 1.688c-.483 5.598-1.72 10.129-3.887 15.312-1.902-.328-1.902-.328-4-1-1.563-2.75-1.563-2.75-3-6l-1.625-2.625c-1.264-2.183-1.92-3.913-2.375-6.375l-2.973 1.52c-4.292 1.84-7.894 1.64-12.464 1.168l-2.217-.186A369.07 369.07 0 01159 271v2l-5-1 1-8-1 2c-2.723.414-2.723.414-6.063.625l-3.347.227L142 267v2l-2.957.148-3.856.227-3.832.21c-3.483.176-3.483.176-6.355 2.415-2.688.125-2.688.125-5 0 .142-1.438.289-2.875.438-4.313.08-.8.162-1.6.246-2.425C121 263 121 263 122 260c.71-11.394.24-21.05-7.246-30.16-8.65-9.074-21.215-11.505-32.926-14.707-10.927-3.02-10.927-3.02-14.828-7.133-1.256-4.046-.413-7.137 1.375-10.875C70 195 70 195 72 193c-.286-1.897-.286-1.897-1-4-.75-2.5-.75-2.5-1-5 .98-1.348 1.98-2.682 3-4l-.563-1.813c-.64-3.206 1.057-4.803 2.692-7.457 1.075-1.798 1.075-1.798.808-4.355-.895-2.486-.895-2.486-2.562-4.938C72 159 72 159 72.059 156.993 73 155 73 155 75.512 153.762l3.175-1.075c7.359-2.848 10.234-6.373 14.313-12.875 1.277-2.697 1.277-2.697.313-5L92 133c-2-3-2-3-1.625-5.688L91 125h2c1.257 2.906 2 4.796 2 8h3l.309-2.574c1.9-9.417 7.376-17.86 13.992-24.656 1.888-1.863 1.888-1.863 3.699-4.77z" fill="#D9CC72"/><path d="M189 25c3.395 2.051 4.803 3.705 7 7 .195 2.629.195 2.629.125 5.563l-.055 2.94L196 43v2l3-1c1.238.03 1.238.03 2.5.063 2.754.153 2.754.153 5.5-2.063.417-3.5.417-3.5 0-7-2.36-2.36-3.779-2.491-7-3v2h5l1 6c-3.061 2.624-3.732 3-8 3a590.708 590.708 0 01-.625-6.375l-.352-3.586L197 30c2-2 2-2 5.313-2.438C206 28 206 28 208.938 29.875c2.87 4.35 2.664 8.049 2.062 13.125l-1 3c-.302 2.864-.508 5.73-.719 8.602C209 57 209 57 208 58l4 7c-2.297 2.64-4.215 3.631-7.543 4.648l-2.726.85-2.918.877-6.079 1.867-3.002.913c-2.231.69-4.445 1.409-6.654 2.165-12.178 4.087-24.74 6.675-37.276 9.404a756.905 756.905 0 00-12.462 2.835c-9.911 2.31-19.1 4.325-29.34 3.441v-2l3-2-6-1 1-4-3-1-1.188-2.5c-1.744-3.368-3.362-5.161-6-7.813-2.932-3.186-4.385-5.18-4.5-9.562.14-2.67.417-3.789 2.106-5.883C91 55 91 55 93 55v-2h3v-3h-4l2-5c2.126 0 4.252.07 6.375.188 3.592.098 3.592.098 6.125-1.688 3.298-1.979 5.723-1.79 9.5-1.5 2.103 2.103 1.444 6.488 1.621 9.336.215 2.886.215 2.886 2.379 5.664v3c-2.84 1.42-4.855 1.315-8 1-2.752-1.955-3.802-3.14-4.563-6.438.795-3.62 2.83-5.17 5.563-7.562l-6 2c-.471 4.808-.705 7.954 2.063 12.063 3.624 2.39 5.673 2.5 9.937 1.937l2-2c3.625.375 3.625.375 7 1l-2.25-1.063c-3.985-2.807-6.271-6.18-7.102-10.96-.199-4.722.776-8.068 3.352-11.977 4.321-3.9 6.995-5.36 12.902-5.285 4.259.579 6.989 3.213 9.973 6.097 1.661 3.23 1.496 5.602 1.125 9.188-1.274 3.553-2.043 5.43-5.313 7.375-3.163.736-5.453 1.097-8.687.625-2.938-2-2.938-2-5-5-.434-2.938-.203-5.277 1-8 3.063-2 3.063-2 6-3-2.916-.25-2.916-.25-6 0-2.702 4.053-2.76 7.243-2 12 1.28 3.055 2.255 3.815 5 6 3.853.977 7.261.873 10.844-.926 3.681-2.77 5.132-5.67 6.156-10.074 3.049 1.016 3.867 1.774 6 4 3.21 1.605 6.517 1.485 10 1 4.257-2.242 4.257-2.242 7-6 .368-4.495.563-6.94-1.563-10.938C165.89 32.062 162.523 32 158 32l1 2 2.75-.25c3.25.25 3.25.25 5.625 1.813 2.275 3.412 2.26 5.413 1.625 9.437-1.988 2.92-3.431 4.611-6.938 5.48-4.09.287-5.66-.157-8.937-2.792C149.506 43.11 148.401 40.885 149 35c2.112-3.923 4.223-6.65 8-9 4.529-.895 9.084-1.05 13.203 1.207 3.774 3.131 6.507 6.174 7.063 11.195-.052 8.448-.052 8.448-2.266 12.598 1.063-2 1.063-2 3-4h7c2.973-1.55 4.541-2.691 5.668-5.906.68-3.608.75-5.424-1.23-8.594-3.015-1.855-4.959-1.816-8.438-1.5l3.438.875L188 33c1.437 2.875 1.382 4.819 1 8-2.188 2.438-2.188 2.438-5 4-2.813-.25-2.813-.25-5-1l-.113-1.828c-.392-4.757-.82-7.407-3.887-11.172.125-2.125.125-2.125 1-4 4.24-2.826 8.021-2.66 13-2z" fill="#D3C879"/><path d="M128 113h2l.488 2.516c6.722 30.453 22.18 59.848 37.537 86.768 6.579 11.576 10.317 22.598 10.702 36.013L179 241l2 1 .688-2.438L183 237l5-1c1.325-2.395 1.325-2.395 2-5 1.5-3 3.743-3.283 6.813-4.5 3.47-1.386 6.875-2.768 10.187-4.5 1 1 1 1 1.25 4-.075 6.07-2.488 11.681-5.25 17l1.563-.5c3.17-.65 6.21-.562 9.437-.5-.315 2.917-.601 4.57-2.625 6.75-3.194 1.681-5.774 2.121-9.375 2.25-2.438-1.438-2.438-1.438-4-3l-3 2 2.309.516c18.288 4.292 18.288 4.292 23.691 12.484v3c-7.458 2.729-16.27 4.577-24 2l-.113 1.688c-.483 5.598-1.72 10.129-3.887 15.312-1.902-.328-1.902-.328-4-1-1.563-2.75-1.563-2.75-3-6l-1.625-2.625c-1.264-2.183-1.92-3.913-2.375-6.375l-2.973 1.52c-4.292 1.84-7.894 1.64-12.464 1.168l-2.217-.186A369.07 369.07 0 01159 271v2l-5-1 1-8-1 2c-2.723.414-2.723.414-6.063.625l-3.347.227L142 267v2l-2.957.148-3.856.227-3.832.21c-3.483.176-3.483.176-6.355 2.415-2.688.125-2.688.125-5 0 .142-1.438.289-2.875.438-4.313.08-.8.162-1.6.246-2.425C121 263 121 263 122 260c.744-11.94.005-20.89-7.695-30.371C113 228 113 228 112 226c4.75 1.875 4.75 1.875 7 3l1 4 2 1c1.125 2.063 1.125 2.063 2 4h1l1 27h2l2-6 7-1 .313-1.813c.783-2.494 1.872-3.372 3.687-5.187v-3l1-3.563c1.354-5.68 1.106-11.343.926-17.14-.157-7.047-.157-7.047 2.074-10.297 3.262 11.572 2.402 28.136-3.465 38.617A107.316 107.316 0 01137 262l-2 3 2.688-2.313c1.838-1.581 3.55-2.82 5.675-4.007 7.823-4.983 16.263-14.645 18.637-23.68 1.094-9.654.327-18.183-4-27l-.912-1.861a225.439 225.439 0 00-13.15-23.014c-5.13-7.91-8.684-16.293-12.108-25.052-.767-1.916-1.604-3.803-2.447-5.686-4.37-10.701-6.966-25.116-2.883-36.2L128 113z" fill="#D0C678"/><path d="M205 222l3 1c.472 7.388-1.613 13.476-5 20l1.563-.5c3.17-.65 6.21-.562 9.437-.5-.315 2.917-.601 4.57-2.625 6.75-3.194 1.681-5.774 2.121-9.375 2.25-2.438-1.438-2.438-1.438-4-3l-3 2 2.309.516c18.288 4.292 18.288 4.292 23.691 12.484v3c-7.458 2.729-16.27 4.577-24 2l-.113 1.688c-.483 5.598-1.72 10.129-3.887 15.312-1.902-.328-1.902-.328-4-1-1.563-2.75-1.563-2.75-3-6l-1.625-2.625c-1.264-2.183-1.92-3.913-2.375-6.375l-2.973 1.52c-4.292 1.84-7.894 1.64-12.464 1.168l-2.217-.186A369.07 369.07 0 01159 271v2l-5-1 1-8-1 2c-2.723.414-2.723.414-6.063.625l-3.347.227L142 267v2h-7c3.069-1.613 6.23-2.933 9.432-4.258 12.228-5.128 23.712-11.035 30.38-22.992 1.55-4.892 1.92-9.645 2.188-14.75h1l.148 3.027.227 3.91.21 3.903L179 241l2 1 .688-2.438L183 237l5-1c1.325-2.395 1.325-2.395 2-5 1.513-3.025 3.842-3.293 6.938-4.5 4.421-1.647 4.421-1.647 8.062-4.5z" fill="#1F1E11"/><path d="M179 84c3.812-.059 7.625-.094 11.438-.125 1.069-.017 2.138-.034 3.24-.05 12.648-.078 23.341 2.787 33.697 10.425 8.97 9.397 12.182 20.22 12 32.938l-.026 3.067c-.281 14.403-4.46 27.278-9.591 40.64-.801 2.225-1.471 4.463-2.13 6.734a178.013 178.013 0 01-3.347 10.203C219.848 200.142 217.383 212 216 225h-3c-1.504-5.128-1.184-10.324-1.188-15.625l-.037-3.16c-.012-6.68.68-12.728 2.225-19.215l.63-2.914c.674-3.1 1.393-6.186 2.12-9.274l.688-3.154c1.395-5.845 2.877-9.924 7.18-14.2 5.355-5.651 4.842-13.527 4.655-20.79C228.206 122.349 219.353 108.61 209 99c-2.19-1.603-4.343-3.108-6.625-4.563l-1.85-1.183c-6.76-4.2-13.702-6.804-21.525-8.254v-1z" fill="#D3C87A"/><path d="M208 49h1c.098 6.152.098 6.152 0 8l-1 1 4 7c-2.297 2.64-4.215 3.631-7.543 4.648l-2.726.85-2.918.877-6.079 1.867-3.002.913c-2.231.69-4.445 1.409-6.654 2.165-12.178 4.087-24.74 6.675-37.276 9.404a756.905 756.905 0 00-12.462 2.835c-9.911 2.31-19.1 4.325-29.34 3.441v-2l3-2-6-1 1-4-3-2 3.243-.807c5.024-1.25 10.047-2.503 15.07-3.755l2.749-.686c9.082-2.265 18.164-4.53 27.22-6.904l3.65-.957c2.177-.574 4.353-1.151 6.528-1.733a193.973 193.973 0 0116.556-3.59c6.069-1.155 12.051-2.709 18.046-4.193 2.595-.64 5.19-1.278 7.786-1.914l3.437-.85C206 55 206 55 208 55v-6z" fill="#2D2911"/><path d="M116 42c2.103 2.103 1.444 6.488 1.621 9.336.215 2.886.215 2.886 2.379 5.664v3c-2.84 1.42-4.855 1.315-8 1-2.752-1.955-3.802-3.14-4.563-6.438.795-3.62 2.83-5.17 5.563-7.562l-6 2c-.471 4.808-.705 7.954 2.063 12.063 3.624 2.39 5.673 2.5 9.937 1.937l2-2c3.625.375 3.625.375 7 1l-2-2c1.917.115 3.834.242 5.75.375 1.067.07 2.135.14 3.234.21 2.818.388 4.599.972 7.016 2.415v-2l4 1-1 3h2v2c-2.229.96-4.458 1.917-6.688 2.875l-1.896.816c-7.609 3.267-14.924 5.518-22.979 7.434l-3.443.84-3.31.793-3.014.723C103 81 103 81 99 81c-1.813-2.5-1.813-2.5-2.785-4.168-1.431-2.158-3.139-3.811-4.965-5.644-3.324-3.71-3.98-6.293-3.79-11.208.663-2.432 1.568-3.44 3.54-4.98h2v-2h3v-3h-4l2-5c2.126 0 4.252.07 6.375.188 3.592.098 3.592.098 6.125-1.688 3.298-1.979 5.723-1.79 9.5-1.5z" fill="#D5CA74"/><path d="M178 63v2c-2.394.674-4.79 1.34-7.188 2l-2.04.578C165.093 68.583 161.814 69.237 158 69l1.063 2.313C160 74 160 74 159 77c-5.278 2.746-10.726 4.038-16.512 5.297l-2.699.6c-1.87.413-3.742.823-5.614 1.23a1373.54 1373.54 0 00-8.591 1.908l-5.47 1.2-2.59.583-2.417.517-2.117.464c-2.26.228-3.822-.157-5.99-.799a446.93 446.93 0 00-6-1l1-4-3-2 3.243-.807a24690.35 24690.35 0 0017.816-4.44c9.12-2.273 18.238-4.549 27.328-6.94l3.692-.971c2.216-.586 4.431-1.176 6.645-1.772C164.542 64.265 170.912 63 178 63z" fill="#373112"/><path d="M140 12h2c3 4.385 3 4.385 3 7l3.813.313c2.588.329 3.943.522 6.125 2 1.185 1.882 1.685 3.502 2.062 5.687l-2.375 1.75c-3.687 3.16-4.465 4.812-5 9.625.442 4.27 1.698 6.318 4.375 9.625 3.206 1.603 6.522 1.481 10 1 2.647-1.397 2.647-1.397 4-4 .425-3.462.639-5.835-1.063-8.938-2.949-1.617-5.646-1.248-8.937-1.062v-3c5.992-1.558 5.992-1.558 8.766-.023 2.175 1.805 3.961 3.477 5.234 6.023.578 7.05.578 7.05-1.75 10.875-3.986 3.765-6.682 4.529-12.29 4.383-4.266-.561-7.162-3.165-9.96-6.258l-.063 2.625c-1.128 4.062-2.556 5.681-5.84 8.223-3.047 1.674-5.49 2.053-8.94 1.793-3.359-.998-5.082-2.707-7.126-5.5C124.233 50.408 124.24 47.02 125 43c1.063-2.563 1.063-2.563 3-4 3.688-.25 3.688-.25 7 0-1 2-1 2-4.063 3.125L128 43l-.063 3.813-.035 2.144c.015 2.246.015 2.246 1.098 5.043 7.028 1.04 7.028 1.04 14 0 1.756-4.5 2.527-8.172 2-13-2.149-3.454-4.147-5.64-8-7a111.726 111.726 0 00-6-1v-1l10-1 1-3-7-2c.442-2.477.91-3.887 2.5-5.875 1.878-2.661 2.136-4.925 2.5-8.125zm16 9l2 1-2 1v-2z" fill="#1F1903"/><path d="M116 42c2.103 2.103 1.444 6.488 1.621 9.336.215 2.886.215 2.886 2.379 5.664v3c-2.84 1.42-4.855 1.315-8 1-2.752-1.955-3.802-3.14-4.563-6.438.795-3.62 2.83-5.17 5.563-7.562l-6 2c-.324 5.504-.533 9.437 3 14h-3l1 4-5-1-1 3-7 1c-2.522-2.628-2.993-3.914-3.313-7.625C92 59 92 59 94 57h4v-3h-5l3-1v-3h-4l2-5c2.126 0 4.252.07 6.375.188 3.592.098 3.592.098 6.125-1.688 3.298-1.979 5.723-1.79 9.5-1.5z" fill="#CAC27E"/><path d="M205 222l3 1c.472 7.388-1.613 13.476-5 20l1.563-.5c3.17-.65 6.21-.562 9.437-.5-.315 2.917-.601 4.57-2.625 6.75-3.194 1.681-5.774 2.121-9.375 2.25-2.438-1.438-2.438-1.438-4-3l-3 2c-2.043.195-2.043.195-4.188.125L187 250c-.757-15.162-.757-15.162 2.32-19.61 3.219-2.664 7.104-3.951 11-5.347 2.78-.875 2.78-.875 4.68-3.043z" fill="#D1C77B"/><path d="M148 47c3.049 1.016 3.867 1.774 6 4 3.796 1.898 9.113.882 13.3.742 3.845.268 5.642.998 8.7 3.258-1.75 1.125-1.75 1.125-4 2-2.25-.875-2.25-.875-4-2v3l4 2v2l2 2-1.973.33c-7.21 1.252-14.258 2.903-21.34 4.733C138.2 72.275 138.2 72.275 133 73c2.963-2.472 5.54-3.662 9.25-4.688.892-.25 1.784-.502 2.703-.761L147 67v-2h-2v-3l-3-1v2c-5.605-.42-10.72-.916-16-3 2-2 2-2 4.61-2.02l3.14.208c5.325.116 5.325.116 9.875-2.313 2.437-2.95 3.514-5.17 4.375-8.875z" fill="#D4C97F"/><path d="M208 66c-3.643 4.802-8.436 5.572-14 7-1.792.476-3.584.955-5.375 1.438l-2.788.747c-2.906.835-5.744 1.795-8.599 2.788-6.906 2.34-13.931 3.914-21.05 5.465-1.366.3-2.732.6-4.098.902-2.062.454-4.124.908-6.187 1.358a786.823 786.823 0 00-12.579 2.865C123.418 90.87 114.234 92.883 104 92v-2c9.48-2.453 19.02-4.603 28.576-6.73 12.655-2.82 25.307-5.656 37.924-8.645l2.938-.685C178.821 72.65 183.84 70.998 189 69c6.353-1.908 12.346-3.454 19-3z" fill="#C0B982"/><path d="M185 253v3h2c-.14 5.565-2.573 8.303-6.113 12.266-3.203 2.943-5.88 3.991-10.215 3.93l-2.422-.02-2.5-.051-2.547-.027A916.47 916.47 0 01157 272c.775-6.277 4.56-9.773 9-14 6.267-4.618 11.48-5.125 19-5z" fill="#D5CA77"/><path d="M194 252c8.903-.682 16.342.992 23.563 6.438 2.53 2.66 3.23 3.95 3.437 7.562-4.342 1.588-8.4 2.524-13 3l-2.012.234c-3.987.274-5.873-.159-9.238-2.359C190 259.818 190 259.818 190 255h4v-3z" fill="#D5CA76"/><path d="M144 217c2.55 4.492 2.345 8.442 2.313 13.5l-.018 2.718c-.206 11.34-2.373 19.7-9.295 28.782l-2 3 6-5 2 1c-1 2-1 2-2 3l3 2c-5.358 1.932-10.342 3.208-16 4l-3 2c-2.688.125-2.688.125-5 0 .142-1.438.289-2.875.438-4.313.08-.8.162-1.6.246-2.425C121 263 121 263 122 260c.744-11.94.005-20.89-7.695-30.371C113 228 113 228 112 226c4.75 1.875 4.75 1.875 7 3l1 4 2 1c1.125 2.063 1.125 2.063 2 4h1l1 27h2l2-6 7-1 .313-1.813c.783-2.494 1.872-3.372 3.687-5.187v-3l1-3.563c1.345-5.681 1.132-11.34 1.014-17.14l-.041-2.285-.055-2.048c.088-2.106.506-3.942 1.082-5.964z" fill="#CDC37F"/><path d="M98 54v3l-5 2c-.296 5.322-.296 5.322 2 10 2.343-.256 4.678-.593 7-1l1-2 5 1-1-4 2.555.07 3.32.055 3.305.07c2.957.106 2.957.106 4.82-2.195 1.875.313 1.875.313 4 1l2.25.563L129 63v2l-10 1v2l-9-1-2 4 4 2h-2l1 3h4v2c-1.915.506-3.832 1.004-5.75 1.5l-3.234.844C103 81 103 81 99 81c-1.813-2.5-1.813-2.5-2.785-4.168-1.431-2.158-3.139-3.811-4.965-5.644-2.638-2.963-3.79-4.947-4-8.938.285-3.362.654-4.137 2.938-6.813C93.127 53.935 94.755 53.63 98 54z" fill="#CFC77E"/><path d="M189 25c3.395 2.051 4.803 3.705 7 7 .23 2.559.23 2.559.188 5.438l-.02 2.87c-.148 2.378-.495 4.416-1.168 6.692h-2c-2.025-6.456-2.025-6.456-1.875-9.688.071-2.467.071-2.467-1.75-4.624-2.98-2.118-4.797-2.013-8.375-1.688l3.438.875L188 33c1.437 2.875 1.382 4.819 1 8-2.188 2.438-2.188 2.438-5 4-2.813-.25-2.813-.25-5-1l-.113-1.828c-.392-4.757-.82-7.407-3.887-11.172.125-2.125.125-2.125 1-4 4.24-2.826 8.021-2.66 13-2z" fill="#C7C082"/><path d="M114 30h2l1 2c2.025.43 2.025.43 4.375.563 2.82.225 4.912.533 7.625 1.437l-2.813 1.625c-3.562 2.654-4.744 4.207-6.187 8.375-.728 5.149-.02 8.72 3 13v2l2.438.875C128 61 128 61 129 63l-6.055-.977L121 62l-2 2c-4.192.475-6.3.456-9.875-1.875-2.751-2.751-3.074-3.577-3.438-7.5C106 51 106 51 107.814 48.562 110 47 110 47 113 47c-1.75 3.875-1.75 3.875-4 5v7c1.458.168 2.917.334 4.375.5l2.46.281c2.134.253 2.134.253 4.165.219l-1.438-2.313C116.225 53.11 116.26 48.047 116 43l-7-2 2-1v-5h2l1-5z" fill="#3E350E"/><path d="M150 34l5 2 1-2 3.25.938c2.579.73 5.145 1.437 7.75 2.062v3h2c-.48 6.355-.48 6.355-2.563 8.938-3.502 1.526-6.732 1.865-10.437 1.062-3.037-2.443-4.844-4.766-7-8-.188-3.625-.188-3.625 0-7l1-1z" fill="#D6CB7B"/><path d="M128 113h2l.77 3.184c1.804 7.385 3.67 14.648 6.23 21.816l-3-1-1 5-2-3c.622 6.339 1.285 12.67 2 19-7.188-7.188-8.14-21.317-8.375-30.938.118-5.308 1.121-9.273 3.375-14.062z" fill="#D3CA7A"/><path d="M171 16l7 3v2l-2 1 .563 2.25C177 27 177 27 176.375 29.063L176 31l1.375 1.688c2.444 3.478 2.367 7.15 2.625 11.312 4.479-.447 4.479-.447 8-3 .242-1.981.242-1.981.125-4.125L188 33l-8-1 1-2c3.955-.46 5.596-.275 8.938 2 2.06 2.998 2.43 3.594 2.25 7-.62 3.052-1.573 4.895-3.813 7.063-4.063 2.332-5.921 2.095-10.375.937l-.875 1.938C176 51 176 51 174 52c.506-2.169 1-4 2-6 .55-5.011.562-8.897-1.75-13.438-2.083-2.568-2.083-2.568-4.438-4.124C168 27 168 27 167.25 24.313L167 22l3-1 1-5z" fill="#3A300C"/><path d="M95 44c2.34.287 4.674.62 7 1l1 3-1 2c-.585 4.797-.468 8.143 1.875 12.438C105.909 64.97 105.909 64.97 108 67l-5-1-1 3-7 1c-2.522-2.628-2.993-3.914-3.313-7.625C92 59 92 59 94 57h4v-3h-5l3-1v-3h-4c1.875-4.875 1.875-4.875 3-6z" fill="#C8BE80"/><path d="M189 260c7.292 7.292 7.292 7.292 7.313 11.625-.081 5.057-1.27 8.777-3.313 13.375-1.895-.313-1.895-.313-4-1-1.688-3-1.688-3-3-6l-1-1c-.975-10.416-.975-10.416 2-15.25l2-1.75z" fill="#D6CD78"/><path d="M142 160l1 6 4-1 2 7h2c1.385 7.442 1.385 7.442 1 11-1.375 1.813-1.375 1.813-3 3h-2v-2l-1.813-.688c-2.937-1.762-3.785-3.173-5.187-6.312a71.398 71.398 0 01-.691-6.816c-.194-2.247-.194-2.247-1.399-4.274C137 164 137 164 138 161c2-1 2-1 4-1z" fill="#D9CD77"/><path d="M204 69l2 2c-7.14 4.656-14.443 6.45-23 6v5l25 1v2h-24v1h-6v-3l-3 1v-3l-3.5 1c-4.275 1.084-8.104 1.157-12.5 1 2.732-2.732 5.11-2.886 8.875-3.75 9.094-2.154 17.997-4.854 26.93-7.587A513.335 513.335 0 01204 69z" fill="#2B2812"/><path d="M168 251c1.532.252 3.053.576 4.563.938l2.503.59L177 253a966.137 966.137 0 01-7.313 3.625C163.894 259.959 158.83 265.492 157 272l2 1-5-1 1-8-1 2c-2.723.414-2.723.414-6.063.625l-3.347.227L142 267v2h-7c3.07-1.613 6.232-2.933 9.433-4.26 8.238-3.45 17.154-7.327 23.567-13.74z" fill="#24210C"/><path d="M195 20c4.692 1.482 4.692 1.482 6.188 4l.812 2 2 2-6 2v13l7-3v-6h-5v-2c2.703-.22 4.44-.329 6.813 1.063 1.877 3.063 1.624 5.439 1.187 8.937-1.563 1.938-1.563 1.938-4 3-3.563.188-3.563.188-7 0h-3l1-2c.622-5.515 1.064-9.636-2.438-14.125L190 27l-1-1a69.603 69.603 0 00-4.063-.563L181 25v-1l2.3.14 3.012.11 2.989.14c2.843-.121 2.843-.121 4.554-2.406L195 20z" fill="#2E290D"/><path d="M222.75 94.875l2.422.617L227 96v3l3 1c-.188 1.813-.188 1.813-1 4-2.438 1.625-2.438 1.625-5 3l-2 2-2-2-1.875-.313c-3.102-1.003-4.269-3.101-6.125-5.687 1.463-4.633 1.463-4.633 3.781-6.219 2.744-.966 4.18-.644 6.969.094z" fill="#D8CC72"/><path d="M202.313 27.563C206 28 206 28 208.938 29.875c2.833 4.293 2.87 8.101 2.062 13.125l-2 3h-5l1-3 2-1c.167-3.417.167-3.417 0-7-2.36-2.36-3.779-2.491-7-3v2h5l1 6c-3.061 2.624-3.732 3-8 3a590.708 590.708 0 01-.625-6.375l-.352-3.586L197 30c2-2 2-2 5.313-2.438z" fill="#CCC28F"/><path d="M140 12h2c3 4.385 3 4.385 3 7l7 1v3l-1.938 1.125c-2.943 2.675-2.714 5.17-2.984 9.012L147 35l-3-1-.75-2.375c-1.42-2.981-1.96-3.214-4.875-4.438L135 26c.442-2.477.91-3.887 2.5-5.875 1.878-2.661 2.136-4.925 2.5-8.125z" fill="#D7CD84"/><path d="M78 159l2 3a93.365 93.365 0 01-1 4l.563 2.063L80 170l-2 3a128.213 128.213 0 00-1 7l2 1c-2.875 6.875-2.875 6.875-4 8a235.648 235.648 0 00-1 7l2 1v2h-7v3h-2c1.63-5.644 1.63-5.644 3.688-7.625L72 193c-.195-1.95-.195-1.95-1-4-.75-2.5-.75-2.5-1-5 .98-1.348 1.98-2.682 3-4l-.563-1.813c-.639-3.196 1.047-4.744 2.704-7.37 1.318-2.788.699-4.947-.141-7.817l2-1 1-3z" fill="#CEC580"/><path d="M178 63v2c-2.394.674-4.79 1.34-7.188 2l-2.04.578C165.093 68.583 161.814 69.237 158 69l1.063 2.313C160 74 160 74 159 77l-7 1v-2l-3-1 2-4-2-1c9.619-3.987 18.484-7 29-7z" fill="#201F09"/><path d="M167 32c2.96 2.582 4.595 4.18 5.445 8 .205 3.596-.33 5.811-2.195 8.875-3.564 3.366-5.209 4.042-10.188 4.438-3.764-.12-6.195-.707-9.062-3.313-.813-3.188-.813-3.188-1-6l2.5 2.5c2.542 2.114 4.31 2.92 7.625 3.063 3.808-.288 3.808-.288 6.375-2.126 2.06-3.347 1.991-5.577 1.5-9.437-.917-2.083-.917-2.083-3-3-3.625-.25-3.625-.25-7 0v-3c3.264-1.632 5.532-.882 9 0z" fill="#3F3512"/><path d="M139 87v3l-2.273.297C129.657 91.33 123.499 93.037 117 96v4h2v5l-3-3-3 3-2-1 1-3c0-3.908-1.506-5.116-4-8 2.153-2.153 6.521-1.974 9.5-2.438 7.502-1.2 7.502-1.2 14.938-2.75C136 87 136 87 139 87z" fill="#1B190A"/><path d="M186 240h1v10l1.938-.625c4.275-.523 7.935.537 12.062 1.625v1h-7v3h-4c2.349 5.05 5.063 9.063 9 13h-2v6h-1l-.188-3.125c-.997-4.76-2.517-6.41-5.812-9.875-2.167 1.32-2.167 1.32-4 4-.658 3.656-.872 7.291-1 11-2-3-2-3-2.5-5.125L182 269l-2-1 1.277-1.61 1.66-2.14 1.653-2.11c1.384-2.1 1.973-3.683 2.41-6.14h-2l1-2h2l1-2-3-1v-11z" fill="#423C18"/><path d="M148 47c3.049 1.016 3.867 1.774 6 4l2 1v3l4 1c-1 2-1 2-3.5 2.938L154 60l-1 3h-4v-2h-3c-1.688-2.5-1.688-2.5-3-5l1.938-2.25c1.845-2.461 2.623-3.785 3.062-6.75z" fill="#C1BA81"/><path d="M76 165c.75 1.563.75 1.563 1 4-1.028 1.767-2.06 3.533-3.152 5.262-1.201 2.462-.494 4.155.152 6.738l-3 3c.264 2.575.84 4.632 1.875 7 .125 2 .125 2-2.188 4.75C68 198 68 198 66 198l1-6-4 1 3-12h4l.313-2.5c.963-4.906 2.087-9.9 5.687-13.5z" fill="#1A1C0B"/><path d="M135 39c-1 2-1 2-4.063 3.125L128 43l-.063 3.813-.035 2.144c.015 2.246.015 2.246 1.098 5.043 7.028 1.04 7.028 1.04 14 0l2-6 3 1c-1.124 3.934-2.883 6.528-6.16 9.035-3.595 1.886-6.954 2.039-10.84.965-2.855-1.886-4.518-3.924-6-7-.844-4.192-.573-7.619 1.063-11.563 2.91-2.158 5.428-1.702 8.937-1.437z" fill="#3D3310"/><path d="M123 37l2 2h-2v3h2l.078 1.977c.383 5.904 1.167 9.42 4.922 14.023l-5 2c-4.184-3.905-5.846-6.095-6.313-11.875.095-4.209 1.252-8.064 4.313-11.125z" fill="#C9C382"/><path d="M114 30h2l1 2c2.025.43 2.025.43 4.375.563 2.82.225 4.912.533 7.625 1.437l-2.813 1.75c-3.207 1.949-3.207 1.949-4.562 4.5C120 42 120 42 118.148 42.32c-4.01.102-5.695-.018-9.148-2.32h2v-5h2l1-5z" fill="#1D1A05"/><path d="M105 115c1.145 1.746 1.145 1.746 2 4-.863 2.035-.863 2.035-2.313 4.063-1.694 2.418-2.74 4.097-3.687 6.937h-2l-.375 2.063c-1.37 6.435-2.31 10.66-7.625 14.937h-3l1.059-1.61 1.379-2.14 1.37-2.11c1.18-2.118 1.918-3.732 2.192-6.14l-2-2.438c-2-2.562-2-2.562-1.75-5.375L91 125h2c1.257 2.906 2 4.796 2 8h3l.309-2.602c.749-3.683 2.017-6.448 3.754-9.773.547-1.06 1.095-2.12 1.66-3.21L105 115z" fill="#C4BD7F"/><path d="M179 84a868.22 868.22 0 0111.75-.25l3.367-.102 3.242-.039 2.984-.063c3.375.577 4.431 1.937 6.657 4.454 2.138.787 2.138.787 4 1v2c-9.211 0-16.628-.94-25.203-4.336-2.228-.823-4.453-1.298-6.797-1.664v-1z" fill="#D8CA7F"/><path d="M151 72l-1 3 2 2c-13.429 4-13.429 4-20 4l-2-5c2.56-.674 5.123-1.34 7.688-2l2.185-.578c3.796-.97 7.173-1.672 11.127-1.422z" fill="#CDC685"/><path d="M148 244h1v6h3c-3.234 8.408-11.438 12.235-19 16l1.207-1.574c4.88-6.424 8.048-11.506 9.793-19.426 1.125 3.75 1.125 3.75 0 6h2l.438-2.938C147 245 147 245 148 244z" fill="#22220E"/><path d="M177 66v5a891.62 891.62 0 01-6.188 2l-3.48 1.125c-2.975.781-5.285 1.059-8.332.875l-1-6a1138.66 1138.66 0 017.813-2.063l2.236-.603c5.611-1.447 5.611-1.447 8.951-.334z" fill="#C4BA84"/><path d="M209 59v2a1694.403 1694.403 0 01-8.625 3.438l-2.45.986C193.62 67.122 189.638 68.467 185 69v-6c8.052-2.393 15.588-4 24-4z" fill="#D0C889"/><path d="M211 215h1l1 10h-2l-.148 1.793c-.417 4.398-.902 8.176-2.852 12.207l6 2v1l-11 1 2-5c1.587-4.995 2.527-9.726 2-15l-3-2 2-2h2a125.01 125.01 0 003-4z" fill="#181707"/><path d="M213 195h1v11l4 1c-.141 2.25-.288 4.5-.438 6.75-.08 1.253-.162 2.506-.246 3.797-.241 2.636-.559 4.933-1.316 7.453h-3c-.967-3.248-1.129-6.188-1.133-9.57l-.004-3.215.012-3.34-.012-3.363.004-3.207.004-2.938C212 197 212 197 213 195z" fill="#BEB680"/><path d="M95 44c2.34.287 4.674.62 7 1l1 3-1 2c-.585 4.797-.468 8.143 1.875 12.438C105.909 64.97 105.909 64.97 108 67c-2.25-.063-2.25-.063-5-1-2.557-3.197-4.351-6.944-5-11l-5-1 3-1v-3h-4c1.875-4.875 1.875-4.875 3-6z" fill="#3B320F"/><path d="M141 147h2v2l3-1v5a177.118 177.118 0 002 4c1.821 3.963 2.491 7.674 3 12h3c2.968 3.767 3.539 7.298 4 12l-2 1a2354.335 2354.335 0 01-5.444-11.096 944.435 944.435 0 00-1.85-3.765c-3.252-6.58-6.344-12.875-7.706-20.139z" fill="#25220A"/><path d="M154 191c8.56 3.096 8.56 3.096 10.063 6.188L164 200l.031 2.32c.028 2.23.013 4.452-.031 6.68-3.19-2.945-5.091-4.76-6-9l-3-1-.375-2.438L154 194l-2-1 2-2z" fill="#D6CC78"/><path d="M171 16l7 3v2l-2 1 .563 2.25c.56 3.519.008 5.608-1.563 8.75-6.705-5.094-6.705-5.094-7.938-8.875L167 22l3-1 1-5z" fill="#2F290E"/><path d="M107 108l2 3-2.188 2.813c-4.069 5.68-7.335 12.332-8.812 19.187h-3l-1-7 4-1-2-5h2l1-4h3c1.47-1.767 1.47-1.767 2.688-4 .436-.743.873-1.485 1.324-2.25L107 108z" fill="#141807"/><path d="M204 85c5.232-.383 8.378.781 13 3l-1 2c-2.563.625-2.563.625-5 1l-1-2c-2.527-.656-2.527-.656-5-1l-1-3zm7 6c-.25 1.875-.25 1.875-1 4l-4 2-9-6 4-1c3.937-1.312 6.125-.243 10 1z" fill="#CBC275"/><path d="M122 79l-1 5c-13.633 3.444-13.633 3.444-20 3v-2c2.06-.818 4.123-1.629 6.188-2.438l3.48-1.37C114.569 79.795 117.863 79 122 79z" fill="#C6BF91"/><path d="M137 33c2.3 1.123 3.983 2.386 6 4-1.75.688-1.75.688-4 1-2.25-1.438-2.25-1.438-4-3l-1 3a252.656 252.656 0 01-6 2c-1.837 1.499-1.837 1.499-3 3l-2-1c.361-5.42.361-5.42 3.063-7.875C129.785 32.7 133.099 32.278 137 33z" fill="#D0C68A"/><path d="M208 49h1c.098 6.152.098 6.152 0 8-2.606 2.606-4.686 3.252-8.188 3.5-3.166.284-6.113.75-9.187 1.563C188 63 188 63 185 63l-1 2v-3l-4-1a9609.01 9609.01 0 0110.625-2.438l3.027-.697C198.42 56.776 203.16 55.72 208 55v-6z" fill="#403616"/><path d="M226 164c1.167 3.5.684 5.428 0 9v2h-2l-1 10-4-1-1-9 2 1c1.72-1.72 2.257-3.718 3-6-.287-2.242-.287-2.242-1-4h3l1-2z" fill="#D7CC79"/><path d="M144 217c2.586 4.538 2.331 8.578 2.313 13.688l.048 2.607c.005 6.078-1.097 11.07-3.361 16.705l-2-2c.49-1.964.985-3.926 1.488-5.887.81-4.927.628-9.835.525-14.816l-.04-2.285-.055-2.048c.088-2.106.506-3.942 1.082-5.964z" fill="#C9C284"/><path d="M131 113c2.583 2.583 2.403 4.099 2.813 7.688.743 5.043 1.865 7.687 5.078 11.523C141.535 136.476 141 142.129 141 147c-2.165-2.165-2.672-3.47-3.656-6.324l-.91-2.62-.934-2.744-.934-2.685c-5.064-14.683-5.064-14.683-3.566-19.627z" fill="#221E08"/><path d="M218 192l2 1c-.141 1.771-.288 3.542-.438 5.313-.08.986-.162 1.972-.246 2.988C219 204 219 204 218 207l-4-1-1 3c-.206-5.76.17-10.508 2-16l3-1z" fill="#D6CA76"/><path d="M200 252c7.157.61 14.17 2.492 19.063 8.063C221 263 221 263 221 266h-3v-3l-3-1-1-3-2.688-.313c-3.395-.704-5.531-1.642-8.312-3.687v-2l-3-1z" fill="#CBC287"/><path d="M119 167c3.185 2.806 5.303 6.328 7.563 9.875l1.208 1.855c2.135 3.33 3.909 6.516 5.229 10.27l-2 2-.75-2.938L129 185c-2.032-.969-2.032-.969-4-1v-3l-3-2c-1.987-3.863-2.496-7.716-3-12z" fill="#C8C17B"/><path d="M146 223l3 3v2h2c1.113 2.8 1.035 3.901.004 6.797l-1.441 2.953-1.434 2.984L147 243h-2l1-20z" fill="#2A2A13"/><path d="M127 46l2 4c1.67-.03 1.67-.03 3.375-.063C136 50 136 50 138 51v2c2.496-.781 2.496-.781 5-2l1-3c0 4 0 4-1.227 5.688C139.538 56.081 135.94 56.344 132 56c-3.063-2.125-3.063-2.125-5-5-.313-2.813-.313-2.813 0-5z" fill="#C8BC80"/><path d="M148 238l2.375 1.5c2.41 1.665 2.41 1.665 4.625 1.5-.7 3.147-1.76 6.026-3 9h-3l-1-5-2 6h-2l1-8h2l1-5z" fill="#131509"/><path d="M112 226c4.75 1.875 4.75 1.875 7 3l1 4 2 1c1.125 2.063 1.125 2.063 2 4h1c.097 6.115-.23 11.933-1 18h-1l-.227-3.148c-.79-8.951-2.192-15.525-7.773-22.852l-1.691-2.266L112 226z" fill="#C8C085"/><path d="M211 62l1 4-5 2v-1c-5.03.525-10.019 1.106-15 2l1-3a63.463 63.463 0 016.813-2.75l1.908-.707c3.414-1.197 5.853-1.958 9.279-.543z" fill="#333321"/><path d="M157 26l2 1-4 4 3 1 1 2 2.75-.25c3.25.25 3.25.25 5.625 2.125C169 38 169 38 169 40h-2l-2-3c-1.895-.579-1.895-.579-4-.688l-2.125-.199A64.268 64.268 0 00155 36c-2.063-.375-2.063-.375-4-1l-1-2c4.75-5.875 4.75-5.875 7-7z" fill="#BEB67D"/><path d="M189 260l2 1-1 3h-2l-1 12 3 2a495.96 495.96 0 014 3l-1 4c-1.813-.125-1.813-.125-4-1-1.688-3-1.688-3-3-6l-1-1c-.975-10.416-.975-10.416 2-15.25l2-1.75z" fill="#C0BA81"/><path d="M228 127c3 1 3 1 4 3 .083 1.448.107 2.9.098 4.352l-.01 2.578-.025 2.695-.014 2.719c-.012 2.219-.028 4.437-.049 6.656h-2l-1 8-3 1 .656-1.66c3.347-9.529 3.22-19.476 1.344-29.34z" fill="#C1BA7E"/><path d="M235 102c6.134 6.718 6.46 15.562 6.313 24.188l.01 2.904c-.039 5.022-.34 9.207-2.323 13.908-.93-3.116-1.071-5.793-.957-9.035.63-13.908.63-13.908-3.266-27.074C234 105 234 105 235 102z" fill="#332F10"/><path d="M116 101l2 1c-.875 7.75-.875 7.75-2 10-2.322.407-4.657.744-7 1v2h-3c1.564-3.522 3.695-6.271 6.125-9.25l2.195-2.703L116 101z" fill="#BCB684"/><path d="M200 32c2.703-.22 4.44-.329 6.813 1.063 1.877 3.063 1.624 5.439 1.187 8.937-1.563 1.938-1.563 1.938-4 3-3.563.188-3.563.188-7 0h-3l2-10h1l1 8 7-3v-6h-5v-2z" fill="#4E4518"/><path d="M138 20l2 1-1 4h2l1-1 5 2v9l-3-1-.75-2.375c-1.42-2.981-1.96-3.214-4.875-4.438L135 26c.573-2.867.861-3.861 3-6z" fill="#BBB37E"/><path d="M224 119c6.71 8.327 6.882 18.693 6 29-1.02 3.453-1.02 3.453-2 6h-1l.124-1.697c.178-2.538.34-5.076.501-7.616l.195-2.67.157-2.568.158-2.364c.02-2.395.02-2.395-2.135-5.085-1.521-4.48-2.23-8.273-2-13z" fill="#221F06"/><path d="M150 44l2.5 2.5c3.167 2.63 5.468 3.125 9.531 2.875 2.977-.567 5.39-1.827 7.969-3.375-.3 2.895-.81 3.838-3.063 5.75-4.854 2.066-8.962 2.006-13.875.125-2.704-2.459-2.824-4.303-3.062-7.875z" fill="#312A08"/><path d="M184.188 24.875l2.73.055L189 25c-3.719 2.047-3.719 2.047-6.25 1.625L181 26v3l4 1-4 1 4 2-5 2-5-4c.313-1.875.313-1.875 1-4 3.314-2.21 4.345-2.225 8.188-2.125z" fill="#CEC386"/><path d="M119 241c3.054 2.384 3.935 3.517 4.46 7.426-.027 1.282-.056 2.565-.085 3.887l-.04 3.863c-.344 3.926-1.129 7.094-2.335 10.824-1.882-3.141-2.152-4.97-1.563-8.563.503-3.139.6-4.325-.437-7.437l.5-2.375c.548-2.876.223-4.814-.5-7.625z" fill="#272609"/><path d="M162 266l9 1v2l10-2c-4.796 4.955-4.796 4.955-9.375 5.125-5.163-.178-5.163-.178-7.625-1.125-1-2-1-2-2-5z" fill="#D5CB85"/><path d="M160 40l5 1v3h-2v4l3 1c-3.188 1.594-6.54 1.527-10 1-2.5-2-2.5-2-4-4l4 1v-2l5-1-1-4z" fill="#C8BE74"/><path d="M199 34h6l1 6c-3.061 2.624-3.732 3-8 3l1-9z" fill="#C8C17E"/><path d="M150 34l5 2 1-2 4 3-5 1-.438 1.813c-.45 1.749-.99 3.474-1.562 5.187l-3-1c-1.491-2.982-1.12-5.716-1-9l1-1z" fill="#CDC67E"/><path d="M151 254l4 2v2l-3 1-2 3c-2.625.188-2.625.188-5 0v3h-5v-2h2l.563-1.688c2.1-3.38 5.144-5.163 8.437-7.312z" fill="#D7CA81"/><path d="M183 240h3v11l4 1-2 3-3-1-1-3-2-1c-.75-3.375-.75-3.375-1-7l2-3z" fill="#181705"/><path d="M112 226c2.393 1.773 2.94 2.764 3.688 5.688L116 234h-5v-5l-5 1v2h-2l-1-5c3.385-1.598 5.466-2.531 9-1z" fill="#121208"/><path d="M162 219h1c1.009 18.066 1.009 18.066-5 26-1.914 1.968-3.734 3.42-6 5 .813-2.938.813-2.938 2-6l3-1c1.12-2.343 1.12-2.343 2-5l1.02-1.684c1.388-3.279 1.446-6.556 1.605-10.066l.117-2.113A679.2 679.2 0 00162 219z" fill="#302D0D"/><path d="M159 79l2 3c-6.731 1.793-11.352 2.216-18 0 2.818-1.521 5.44-2.485 8.563-3.188l2.316-.542C156 78 156 78 159 79z" fill="#BBB67F"/><path d="M179 84h24v1l-8 1 3 3c-3.726 1.242-4.792.548-8.375-.875C186.083 86.73 182.757 85.642 179 85v-1z" fill="#ACA67A"/><path d="M128 113h2l1 9-2 1v-2h-2l.07 2.082.055 2.73.07 2.708C127 131 127 131 125 134c-.318-7.728-.323-13.94 3-21z" fill="#BEB582"/><path d="M235 158l2 2-5 10h-2l.625 2.25c.42 3.073-.006 4.178-1.625 6.75h-2c1.606-6.836 3.199-13.545 6-20l2-1z" fill="#211F09"/><path d="M237 124h1c.105 5.786-.007 11.293-1 17l-5 1v-7l4-1-.063-3.875c-.062-3.875-.062-3.875 1.063-6.125z" fill="#D8CC7C"/><path d="M142 29c2 2 2 2 3 5l2 2c-.375 2.625-.375 2.625-1 5l-1.25-1.242c-4.439-4.142-7.775-5.71-13.75-6.758v-1l2.152-.148 2.786-.227c.916-.07 1.833-.14 2.777-.21L141 31l1-2z" fill="#2D2A10"/><path d="M135 27l7 1-1 4-19 2c3.094-3.094 6.552-3.937 10.875-4.125L135 30v-3z" fill="#1C1906"/><path d="M152 20l3 1c1.188 3.063 1.188 3.063 2 6l-6 4v-3h-4c.813-1.938.813-1.938 2-4l3-1v-3zm4 1l2 1-2 1v-2z" fill="#20210B"/><path d="M166 258c0 3.106-.54 4.353-2 7h-2l1 3 2 1-1 2c-2.322.407-4.657.744-7 1 .499-4.457 2.02-6.577 5.063-9.813l2.222-2.394L166 258z" fill="#C3BE84"/><path d="M213 245l1 3-1 2h-3v4l-1.723-.402c-4.749-1.086-9.445-1.981-14.277-2.598l4-4 1.563 1.563c2.468 1.742 2.468 1.742 5.937 1.375 3.726-.999 5.116-1.981 7.5-4.938z" fill="#332C0C"/><path d="M114 113c1.13 3.392.744 4.586 0 8-.142 1.91-.245 3.824-.316 5.738l-.127 3.233-.12 3.341-.13 3.4c-.106 2.763-.208 5.525-.307 8.288h-1c-.664-9.348-1.16-18.621-1-28h2l1-4z" fill="#B6AE72"/><path d="M181 26c1.437-.054 2.875-.093 4.313-.125l2.425-.07C190 26 190 26 193 28v4c-4.752.432-7.782-1.015-12-3v-3z" fill="#C9C285"/><path d="M186 240h1v10l1.938-.625c4.275-.523 7.935.537 12.062 1.625v1h-7v3l-5 1v-4l-3-1v-11z" fill="#5E5830"/><path d="M175 18h4l1 4 6-1v2l2 1-12 2-1-4 3-1v-2l-3-1z" fill="#161803"/><path d="M221 264l5 2v3l-5 1-1-2a516.26 516.26 0 00-4.25.875l-2.39.492c-2.328.625-4.25 1.481-6.36 2.633l-4-3c2.437-.504 4.874-1.003 7.313-1.5l2.091-.434c2.921-.592 5.607-1.066 8.596-1.066v-2z" fill="#242207"/><path d="M122 260h1v9l4-1a68.304 68.304 0 014.25-.063L135 268v1l-3.313.375c-3.76.38-3.76.38-6.687 2.625-2.688.125-2.688.125-5 0 .142-1.438.289-2.875.438-4.313.08-.8.162-1.6.246-2.425C121 263 121 263 122 260z" fill="#BAB482"/><path d="M208 223h1a98.44 98.44 0 01-1 16l6 2v1l-11 1 2-5a215.24 215.24 0 001.625-7.813l.406-2.1c.328-1.694.649-3.39.969-5.087z" fill="#322F0D"/><path d="M205 222l3 1c.226 5.419-.533 9.775-2 15-.976-3.383-.859-5.566 0-9l-7-2 2.438-1.938c1.837-1.468 1.837-1.468 3.562-3.062z" fill="#BBB57E"/><path d="M156 78c-3.4 1.922-6.763 2.77-10.563 3.625-1.135.26-2.27.52-3.44.79C139 83 139 83 136 83v-3c2.394-.533 4.79-1.052 7.188-1.563l2.04-.458c3.905-.82 6.924-1.107 10.772.021z" fill="#3C3912"/><path d="M94 57h3c-1 3-1 3-3 4l1 5h8l-1 3-7 1c-2.522-2.628-2.993-3.914-3.313-7.625C92 59 92 59 94 57z" fill="#55491A"/><path d="M123 37l2 2h-2v3h2v7l-2-2c-2.51 1.255-2.871 2.5-4 5-.293-5.659-.035-9.022 3-14l1-1z" fill="#BFB77A"/><path d="M114 30h2l2 3 3 2-2 1c-.652 2.025-.652 2.025-1 4l-1.813-.938C113.91 37.898 113.91 37.898 111 37v-2h2l1-5z" fill="#B6B288"/><path d="M171 16l7 3v2l-3 2-2 3-2-2a88.982 88.982 0 00-4-2l3-1 1-5z" fill="#B5AF85"/><path d="M139 12h1c.357 3.836.358 5.504-1.938 8.688L136 23l-1 3 3 1-4 1a700.574 700.574 0 01-.063-4.813l-.035-2.707C134 18 134 18 135 15h4v-3z" fill="#2C2C17"/><path d="M213 185c.981 3.053.981 4.947 0 8h-2v20h-1c-.227-3.562-.428-7.124-.625-10.688l-.195-3.052-.157-2.96-.158-2.713c.153-2.934.814-4.971 2.135-7.587l2-1z" fill="#191807"/><path d="M156 53h8c-.875 4.75-.875 4.75-2 7l-4-1-2 4h-2v-2a158.814 158.814 0 016-5h-5l1-3z" fill="#D8CC83"/><path d="M225 154h2c-.959 2.876-1.7 4.72-3.938 6.813-2.903 3.079-3.728 6.186-5.062 10.187-1.125-3.75-1.125-3.75 0-6h-2c.813-1.938.813-1.938 2-4l3-1a749.534 749.534 0 004-6z" fill="#161605"/><path d="M177 66v5h-4v-2a668.813 668.813 0 00-15 2v-2a1138.66 1138.66 0 017.813-2.063l2.236-.603c5.611-1.447 5.611-1.447 8.951-.334z" fill="#B1AC7C"/><path d="M178 63v2c-6.77 2.203-11.971 3.459-19 2 3.126-1.755 5.975-2.515 9.5-3.125l2.844-.508C174 63 174 63 178 63z" fill="#282103"/><path d="M98 54v3l-2.375.563c-3.019 1.277-3.019 1.277-3.938 5.062L91 66l-2-1c-.487-7.423-.487-7.423 1.688-10 2.624-1.135 4.481-1.236 7.312-1z" fill="#CAC290"/><path d="M178 47l3 1c1.386 3.234.705 5.653 0 9l1 2c-1.875.625-1.875.625-4 1l-2-2 3-3-2-1v-2l-2-1 3-4z" fill="#D5CA70"/><path d="M191 42l2 2c-1 2-1 2-4.438 3.813-2.676 1.466-3.445 1.97-4.937 4.75L183 55l-1 3-2-1 .625-3.375L181 50l-2-2 3.75-.75c3.764-.921 5.78-2.163 8.25-5.25z" fill="#D5C786"/><path d="M186 35l1 4h-2l-1 3h-2l1 2h-4c.586-6.152.586-6.152 1-8 2-1 2-1 6-1z" fill="#D3CB7D"/><path d="M167 258l4 1v7h-3l-2.063.625L164 267l-2-2 2-1a134.078 134.078 0 003-6z" fill="#D8CD75"/><path d="M122 82l2 2c-2.395 2.858-4.305 3.573-7.938 4.25l-2.59.516C111.006 89 109.34 88.76 107 88l1-2a96.718 96.718 0 016.5-1.563c4.07-.544 4.07-.544 7.5-2.437z" fill="#564E25"/><path d="M108 52c4 4.75 4 4.75 4 7 1.95-.195 1.95-.195 4-1 1.284-1.984 1.284-1.984 2-4 2 3 2 3 2 6-2.84 1.42-4.855 1.315-8 1-2.375-1.688-2.375-1.688-4-4-.25-2.75-.25-2.75 0-5z" fill="#C0B984"/><path d="M140 16h2l2 4-1 1 3 1v3l-3 1-2 1v-2h-2c-.125-6.75-.125-6.75 1-9z" fill="#D6CA7E"/><path d="M68 208l2.125.586c5.61 1.54 11.225 3.028 16.875 4.414v2l2 1c-8.137-.271-13.932-3.09-21-7v-1z" fill="#B8B27B"/><path d="M220 163c2 2 2 2 2 6l2 1-3 7c-2-1-2-1-2.684-2.766-.368-2.602-.014-4.442.621-6.984l.59-2.422L220 163z" fill="#C7BF7A"/><path d="M133 159c1.89.273 1.89.273 4 1 2.987 4.57 3.331 9.703 3 15-2.461-2.461-3.303-4.785-4.625-8l-1.352-3.25C133 161 133 161 133 159z" fill="#C7BF7D"/><path d="M122 79l-1 5-3.875.188-2.18.105L113 84l-2-3c7.625-2 7.625-2 11-2z" fill="#C2BB82"/><path d="M204 69l2 2c-5.39 3.594-8.537 4.454-15 4v-2l13-4z" fill="#26220D"/><path d="M103 66h6l-2 5 5 1-2 1v4h-2v-2h-2l-3-9z" fill="#CABE6D"/><path d="M156 58v3h-2v2l4-2v2h2v2c-1.49 1.49-3.069 2.172-5 3h-4l1-3v-2c1.615-3.808 1.615-3.808 4-5z" fill="#C4B977"/><path d="M197 266h21c-5.3 3.534-11.786 3.414-18 3l-3-3z" fill="#B8B17A"/><path d="M150 53l7 4-1.375 1.313C153.8 60.108 153.8 60.108 152 63v-2l-5-1 3-7z" fill="#2E2908"/><path d="M198 233l5 1v2h-3l1 6-4 1c-1.25-6.625-1.25-6.625 1-10z" fill="#D9CC70"/><path d="M194 89c5.451 2.582 10.175 5.381 15 9-1.809.617-1.809.617-4 1-3.063-1.875-3.063-1.875-6-4l-3-1v-3h-2v-2z" fill="#2E2A0F"/><path d="M193 70l-5 2h6c-3.004 2.003-4.71 2.493-8.188 3.125l-2.73.508L181 76c0-3 0-3 2-5 3.694-1.526 6.18-2.47 10-1z" fill="#B3AF79"/><path d="M159 26l2 1v2l3-1v2h2l1-2 1 3-13 1v-3c2-1.688 2-1.688 4-3z" fill="#D4CC89"/><path d="M189 235h1v7h-2l1.313 1.313L194 248h-4l-1 2h-2c-.369-10.558-.369-10.558 2-15z" fill="#D5CB86"/><path d="M232 154l2 2c-.172 2.023-.172 2.023-.75 4.375l-.547 2.336c-.693 2.256-1.586 4.215-2.703 6.289h-2a173.75 173.75 0 012-9l.5-2.688C231 155 231 155 232 154z" fill="#D1C881"/><path d="M139 87v3c-3.754 1.204-7.332 1.099-11.25 1.063l-3.828-.028L121 91v-1c2.437-.504 4.874-1.003 7.313-1.5l2.091-.434C133.325 87.474 136.011 87 139 87z" fill="#2D2A11"/><path d="M164 222c3 3 3 3 3.074 5.7l-.387 2.988-.363 3.011L166 236l-3 1 1-15z" fill="#D6CB81"/><path d="M219 201h1v17h-3c-.218-6.002.494-11.192 2-17z" fill="#393616"/><path d="M76 165c.75 1.563.75 1.563 1 4-1.026 1.763-2.054 3.524-3.14 5.25-1.104 1.867-1.104 1.867-.61 4.688L74 181l-4 3c.448-6.674 1.047-14.047 6-19z" fill="#2D2B0C"/><path d="M80 153l-2 5h-2v4l-3-1-1-5c5.75-3 5.75-3 8-3z" fill="#C2BC80"/><path d="M127 121l4 1v4h-2l1 3c-.559 2.043-.559 2.043-1.438 4.188l-.87 2.167L127 137h-1l1-16z" fill="#D6CC7F"/><path d="M100 122l2 1-4 10h-3l-1-7 2.438-.875c2.695-.858 2.695-.858 3.562-3.125z" fill="#252608"/><path d="M204 85c5.232-.383 8.378.781 13 3l-1 2a339.656 339.656 0 01-4.313-.375c-.8-.07-1.6-.14-2.425-.21C207 89 207 89 204 87v-2z" fill="#C4BF7D"/><path d="M167 55l1 3c2 1.209 2 1.209 4 2v2l2 2-3.813-.375c-.707-.07-1.415-.14-2.144-.21C166 63 166 63 163 61l1-2h2l1-4z" fill="#CCC36C"/><path d="M202.625 27.875L206 28l-4 2 3 2h-5l-1 8h-1a339.515 339.515 0 01-.625-4.875l-.352-2.742L197 30c2-2 2-2 5.625-2.125z" fill="#A6A174"/><path d="M153 262l1 4-12 1v2h-7c3.309-1.71 6.692-3.182 10.125-4.625l3.195-1.352C151 262 151 262 153 262z" fill="#342F13"/><path d="M135 194h2c1.03 2.288 2.05 4.58 3.063 6.875l.892 1.973c.742 1.692 1.4 3.42 2.045 5.152l-1 2-1-3h-2c-1.316-3.62-2-6.096-2-10h-2v-3z" fill="#B8AF79"/><path d="M95 44l5 2-2 6h-2v-2h-4c1.875-4.875 1.875-4.875 3-6z" fill="#AAA57E"/><path d="M186 278c2.248 2.052 3.002 3.007 4 6l5 1-1 3c-3.873-1.144-7.003-2.233-10-5v-2h2v-3z" fill="#292714"/><path d="M71 153h7c-2 2-2 2-5 3 .557 3.344 1.352 6.033 3 9-2 0-2 0-4.125-1.625-2.374-3.007-2.282-4.631-1.875-8.375l1-2z" fill="#2B2A10"/><path d="M127 149h2a597.21 597.21 0 012.563 5.813l1.44 3.269C134 161 134 161 133 164c-2-3-2-3-2-6l-2-1c-1.375-2.903-2-4.761-2-8z" fill="#2B280F"/><path d="M218 105l3 1c1.31 3.172 2 5.559 2 9h2l1 3-2 1a785.383 785.383 0 01-3.563-5.875l-2.003-3.305L217 107l1-2z" fill="#C6BD7D"/><path d="M219 94c5.02-.793 5.02-.793 8 0 2.811 2.696 4.918 5.72 7 9l-1 2-3-3-1.688-1.5C227 99 227 99 227 96l-8-1v-1z" fill="#C1B977"/><path d="M88 58h1l1 7 1-5h1c.39 1.433.762 2.872 1.125 4.313l.633 2.425C94 69 94 69 92 72c-2.358-2.284-3.887-4.008-4.266-7.336.014-2.233.091-4.438.266-6.664z" fill="#B3AC7D"/><path d="M210 33h1c.054 1.604.093 3.208.125 4.813l.07 2.707C211 43 211 43 209 46h-5l1-3 2-1c.36-1.661.69-3.329 1-5 1.063-2.313 1.063-2.313 2-4z" fill="#C4BE7F"/><path d="M144 231h1c.054 2.229.093 4.458.125 6.688l.07 3.761c-.185 3.363-.737 5.55-2.195 8.551l-2-2c.346-2.94.793-5.732 1.375-8.625l.46-2.43c.379-1.983.77-3.964 1.165-5.945z" fill="#D1CB85"/><path d="M96.25 215.875L99 217v2h6l-1 3-15-5c4-2 4-2 7.25-1.125z" fill="#BAB078"/><path d="M113 89l-1 1h9c-4.223 2.111-6.14 2.217-10.75 2.125l-3.547-.055L104 92v-2c6.75-2.125 6.75-2.125 9-1z" fill="#AAA77D"/><path d="M142.25 81.875c3.086.103 5.764.401 8.75 1.125-3.508 2.339-5.817 2.776-10 3-1.938-1.438-1.938-1.438-3-3 1-1 1-1 4.25-1.125z" fill="#CFC192"/><path d="M126 75c1.938.625 1.938.625 4 2 .75 3.125.75 3.125 1 6h-6l-1-3h2v-5z" fill="#15140A"/><path d="M191 62l-1 3 3 2-8 2v-6c3-1 3-1 6-1z" fill="#B5B078"/><path d="M137 201c2 3.75 2 3.75 2 6h2c2.174 2.818 3.087 4.22 2.688 7.813L143 217c-2-2-2-2-2.125-4.625L141 210l-3-1-1-8z" fill="#CEC67B"/><path d="M173 73c-2.42 2.42-4.157 2.794-7.438 3.688l-2.933.824C160 78 160 78 157 77c1-2 1-2 2.855-2.633 4.46-.941 8.557-1.602 13.145-1.367z" fill="#2E2808"/><path d="M107 58c1.688 2.5 1.688 2.5 3 5h-3l1 3c-2.993-1.098-3.846-1.677-5.25-4.625L102 59c2-1 2-1 5-1z" fill="#C1B877"/><path d="M208 49h1c.098 6.152.098 6.152 0 8-1 1-1 1-4 3-3.035-.38-4.376-1.25-7-3l10-2v-6z" fill="#46401E"/><path d="M217 218h3c-.352 5.461-.352 5.461-1 8-2.063 1.5-2.063 1.5-4 2l-1-3h2l1-7z" fill="#201C0E"/><path d="M131 122c1.907 2.861 3.004 5.353 4.188 8.563l1.105 2.94C137 136 137 136 136 138h-3l1-5h-2l-1-11z" fill="#C0B97C"/><path d="M144 73v1c-1.728.339-3.458.67-5.188 1l-2.917.563c-2.688.406-5.183.516-7.895.437v-2c5.899-1.79 9.932-2.084 16-1z" fill="#35300C"/><path d="M209 59v2c-6.625 3.125-6.625 3.125-10 2l1-1-4-2c1.416-.17 2.833-.335 4.25-.5l2.39-.281C205 59 205 59 209 59z" fill="#B0AB7F"/><path d="M124 53c3.161 1.37 3.993 1.99 6 5l-5 2c-1.5-1.375-1.5-1.375-3-3 0-2 0-2 2-4z" fill="#C4BE80"/><path d="M209 46h1l.25 3.375c.329 3.683.329 3.683 2.813 5.063L215 55l-2 4-3-1c-.96-2.882-1.106-4.699-1.063-7.688l.028-2.449L209 46z" fill="#1F1D12"/><path d="M93 41l6 1-2 4-2-1-3 5 4 1-5 1c-.196-4.219.198-7.17 2-11z" fill="#242111"/><path d="M168 15c1.525.09 3.047.245 4.563.438l2.503.308L177 16l-4 2-1-1-.813 1.938C170 21 170 21 167 22c-.043-2-.04-4 0-6l1-1z" fill="#1F1D0D"/><path d="M197 268l11 2v1c-1.29.363-2.582.715-3.875 1.063l-2.18.597C200 273 200 273 198 272l-1 2v-6z" fill="#161705"/><path d="M185 253v2h-6v2l-3 1-1-3-2-1c3.981-1.327 7.85-1.07 12-1z" fill="#BAB37C"/><path d="M162 217h2v3h3l1 5h-2l-1-2-1 10h-1l-1-16z" fill="#BFB671"/><path d="M113 153l2 1c.738 2.617.738 2.617 1.313 5.875l.613 3.242C117 166 117 166 115.543 167.883L114 169v-3a712.13 712.13 0 00-.5-6.688l-.281-3.574L113 153z" fill="#D8CB86"/><path d="M214 96l2 1zm-1 1l1 3 2 .875c2 1.125 2 1.125 2.75 3.75L219 107c-3.337-1.38-5.223-2.82-7-6 .313-2.25.313-2.25 1-4z" fill="#D6CB83"/><path d="M146 53l3 4-1 2 4 2-1 2h-2v-2h-3c-1.688-2.5-1.688-2.5-3-5l3-3z" fill="#B4AD6B"/><path d="M181 268c-4.514 3.523-7.283 4.457-13 4 3.197-4.138 8.108-5.63 13-4z" fill="#C9C38B"/><path d="M218 192l2 1c-.141 1.771-.288 3.542-.438 5.313-.08.986-.162 1.972-.246 2.988C219 204 219 204 218 207h-2c.525-5.03 1.106-10.019 2-15z" fill="#D6CC86"/><path d="M131 113c2.858 2.858 2.408 5.147 2.625 9.125l.227 3.883L134 129c-2.733-5.27-4.79-10.094-3-16z" fill="#343013"/><path d="M184.188 24.875l2.73.055L189 25c-3.719 2.047-3.719 2.047-6.25 1.625L181 26v3l4 1-5 1-2-3-2-1c3.314-2.21 4.345-2.225 8.188-2.125z" fill="#B0A970"/><path d="M193 265l3 2c.363 2.313.363 2.313.313 5l-.012 2.688C196 277 196 277 194 279a666.99 666.99 0 01-.563-4.875l-.316-2.742C193 269 193 269 194 267l-2-1 1-1z" fill="#C7C27B"/><path d="M124 238h1c.097 6.115-.23 11.933-1 18h-1a611.89 611.89 0 01-.625-6.75l-.352-3.797c-.022-3.289.197-4.763 1.977-7.453z" fill="#C1B779"/><path d="M157 183c3.625 1.208 3.402 1.803 5 5l3 1 1-2c-.313 1.875-.313 1.875-1 4l-3 2-5-10z" fill="#262210"/><path d="M137 170c6 9 6 9 6 12l-5-2-1-10z" fill="#322F11"/><path d="M84 149l-4 1v3l-7 1v-2c3.651-3.26 6.28-4.573 11-3z" fill="#151505"/><path d="M128 77l4 1v3h4l-1 3h-8l1-2 3 1c-.344-2.473-.344-2.473-1-5l-2-1z" fill="#322A0F"/><path d="M150 44l2.563 2.438C155.851 49.215 158.685 49.74 163 50v1c-1.435.223-2.873.428-4.313.625l-2.425.352C154 52 154 52 151 50c-.688-3.125-.688-3.125-1-6z" fill="#3A3412"/><path d="M104 39l8 2c-2.914 1.943-5.858 3.464-9 5l-1-2c.938-2.625.938-2.625 2-5z" fill="#1B1B0C"/><path d="M154 248c0 3 0 3-1 6h3v2l-3 1-2-2-4 2a1667055525.68 1667055525.68 0 004.59-6.152C153 249 153 249 154 248z" fill="#C1B976"/><path d="M171 207l4 1 1 8-2 1c-3-6.625-3-6.625-3-10z" fill="#25220C"/><path d="M107 108l2 3-1.023 1.426-1.352 1.886-1.336 1.864A214.957 214.957 0 00102 121c-.684-1.703-.684-1.703-1-4 1.215-2.36 1.215-2.36 2.938-4.75l1.714-2.422L107 108z" fill="#24250B"/><path d="M97 76l2.5 1c4.087 1.168 7.27 1.146 11.5 1-3.035 2.024-4.194 2.321-7.688 2.625l-2.449.227L99 81l-2-5z" fill="#C1BC80"/><path d="M91 71c1.155.905 2.299 1.824 3.438 2.75l1.933 1.547c1.817 1.9 2.233 3.139 2.629 5.703-3-1.813-3-1.813-6-4v-3l-3-1 1-2z" fill="#363315"/><path d="M204 64l-3 1v2l-9 2 1-3c1.996-.984 1.996-.984 4.438-1.75l2.433-.797C202 63 202 63 204 64z" fill="#493C1D"/><path d="M127 58c1.792.114 3.584.241 5.375.375l3.023.21C138 59 138 59 140 61c-5.417.934-8.805 1.208-14-1l1-2z" fill="#CEC786"/><path d="M199 34h6v4l-1.875.438c-2.158.494-2.158.494-4.125 1.562v-6z" fill="#CBC48B"/><path d="M185 32l3 1-2 4v-2l-6 1v6h-1l-1-8 2.375-.438c2.59-.44 2.59-.44 4.625-1.562z" fill="#B8AF6E"/><path d="M160 26h8l2 4c-3.273 0-5.847-.3-9-1l-1-3z" fill="#C8C387"/><path d="M195 20l5 2-4 5-4-3 3-4z" fill="#BCBA95"/><path d="M127 179c2.743 3.2 4.63 6.005 6 10l-2 2-.75-2.938L129 185c-2.032-.969-2.032-.969-4-1l2-1v-4z" fill="#BDB778"/><path d="M78 159c2 3 2 3 1.75 6.5C79 169 79 169 77 172l-2-1 .563-2.875c.724-3.024.724-3.024-.563-5.125l2-1 1-3z" fill="#C4B975"/><path d="M128 146h3c2.277 8.036 2.277 8.036 1 12a562.649 562.649 0 01-2-4.313l-1.125-2.425C128 149 128 149 128 146z" fill="#BAB37E"/><path d="M91 125h2l2 7-3 1c-2-3-2-3-1.625-5.688L91 125z" fill="#B3B089"/><path d="M88 121l1 2h5v2l4-3v4l-5 2-1-3c-2.504-1.219-2.504-1.219-5-2l1-2z" fill="#1B1E12"/><path d="M141 74v2h-7l-1 4 3 1h-4l-2-5c3.877-1.193 6.916-2 11-2z" fill="#AAA274"/><path d="M113 47c-1.75 3.875-1.75 3.875-4 5-1.134 2.017-1.134 2.017-2 4-.75-2.25-.75-2.25-1-5 2.309-3.05 3.102-4 7-4z" fill="#51471C"/><path d="M133.188 44.938L135 46l-3 1c-.733 2.015-.733 2.015-1 4l-3-1v-5c3-1 3-1 5.188-.063z" fill="#D7CE81"/><path d="M142.375 257.5l2.625.5c-2.026 4.052-8.004 6.024-12 8 4.937-7.842 4.937-7.842 9.375-8.5z" fill="#474311"/><path d="M198 246l4 1v2l9-1c-2.851 2.851-5.035 2.863-9 3-2.438-1.875-2.438-1.875-4-4v-1z" fill="#AEA772"/><path d="M168.063 247.938L171 248a158.814 158.814 0 01-5 6h-2a99.984 99.984 0 010-5c1-1 1-1 4.063-1.063z" fill="#C3BD74"/><path d="M149 191c4.429 5.143 4.429 5.143 5 9l-3 1c-2.094-3.402-2.18-6.053-2-10z" fill="#2D290E"/><path d="M224 175h4l-2 8h-2c-1.125-5.75-1.125-5.75 0-8z" fill="#C1B877"/><path d="M146 174l-2 8c-4-4.75-4-4.75-4-7 2-1 2-1 6-1z" fill="#CEC47A"/><path d="M230 167l2 3h-2l.625 2.25c.42 3.073-.006 4.178-1.625 6.75h-2l3-12z" fill="#2D2A0D"/><path d="M167 77v3c-2.709 1.354-5.01 1.065-8 1v-3c5.75-1 5.75-1 8-1z" fill="#D0CA8F"/><path d="M172 48l3 4-1 2a108.817 108.817 0 01-7-1l-1-2 6-3z" fill="#CABD75"/><path d="M144 11l3 1v7h-2c-3-4.385-3-4.385-3-7l2-1z" fill="#241F0B"/><path d="M133 259h2c.688 1.75.688 1.75 1 4-1.438 2.25-1.438 2.25-3 4l-2-1v-5h2v-2z" fill="#CABF6E"/><path d="M224 185c2 3 2 3 1.688 5.563C225 193 225 193 224 195h-2c.458-3.47.891-6.674 2-10z" fill="#353111"/><path d="M134 76l8 1c-1.125 1.5-1.125 1.5-3 3-3.188.188-3.188.188-6 0l1-4z" fill="#D7C989"/><path d="M184 65h2l-1 4 9-2c-2.313 2.313-3.479 2.496-6.625 3.125l-2.477.508L183 71a99.984 99.984 0 010-5l1-1z" fill="#282204"/><path d="M184 66l-1 4-2-1v2h-2v-3l-3-1c5.75-2.125 5.75-2.125 8-1z" fill="#131405"/><path d="M102 45c1.208 3.623.543 4.641-1 8h-3c.498-3.688 1.1-5.605 4-8z" fill="#2C280B"/><path d="M128 39h7c-1.284 2.569-2.366 2.947-5 4h-4l2-4z" fill="#3C3911"/><path d="M195 38h1l-1 9h-2l-2-7h3l1-2z" fill="#C5B773"/><path d="M159 271c9.41-.369 9.41-.369 14 2v1h-9v-2h-5v-1z" fill="#2F2D0F"/><path d="M158 265l2 1-3 6 2 1-5-1c.313-2.375.313-2.375 1-5l3-2z" fill="#272514"/><path d="M179 248l4 5h-8v-2c2-1.625 2-1.625 4-3z" fill="#1B1902"/><path d="M206 244l3 1 1 3c-2.709 1.354-5.01 1.065-8 1l3-1-1-3 2-1z" fill="#D4C980"/><path d="M163 194c4 2 4 2 5.313 3.875C169 200 169 200 168 204l-5-10z" fill="#2C290D"/><path d="M72 193l1 4-4 2v3h-2c1.09-3.775 1.908-6.47 5-9z" fill="#BBB67B"/><path d="M225 119l4 1 1 8c-3.092-2.53-3.91-5.225-5-9z" fill="#CEC487"/><path d="M152 85l-2 3-10-1c7.13-3.565 7.13-3.565 12-2z" fill="#453C21"/><path d="M160 84l-1 2h-6v2h-2l-1-3c3.578-2.34 5.922-1.927 10-1z" fill="#201D0A"/><path d="M177 73h6c-1.706 2.784-2.476 3.854-5.688 4.75L175 78l2-5z" fill="#CCC18D"/><path d="M161 62l8 1c-3.035 2.024-4.194 2.321-7.688 2.625l-2.449.227L157 66l1-2h2l1-2z" fill="#D3C88A"/><path d="M94 57h3c-1 3-1 3-3 4l1 6-2 1c-1.507-3.013-1.178-5.683-1-9l2-2z" fill="#4A4010"/><path d="M171 35h4l1 4h-2l-1 5h-1l-1-9z" fill="#D2C988"/><path d="M118 33h11c-4.75 3.875-4.75 3.875-7 5v-2l-3-1-1-2z" fill="#424220"/><path d="M181 26c3.146-.262 4.618-.248 7.313 1.5L190 29c-3.378.845-5.675 1.108-9 0v-3z" fill="#D4CB8F"/><path d="M192 261l7 6-2 1v6h-1l-.25-3.188c-.803-4.082-1.943-5.824-4.75-8.812l1-1z" fill="#6D652B"/><path d="M170 255h3l2 5h-6l-1-3 2-2z" fill="#C1BD74"/><path d="M142 253l2 1v2l3 1-6 2-1-2c.938-2.125.938-2.125 2-4z" fill="#262407"/><path d="M137 190c2.248 2.052 3.002 3.007 4 6-.438 2.688-.438 2.688-1 5-1.801-2.702-3.002-4.93-4-8l1-3z" fill="#25220E"/><path d="M237 145c2.266 4.532 1.927 6.178 1 11l-3-1 2-10z" fill="#312C12"/><path d="M235 102c2.116 2.576 3.673 4.625 4 8l-2 3-3-10 1-1z" fill="#2C240A"/><path d="M104 48h3c-.398 2.886-.79 3.822-3.063 5.75L102 55l-1-3 2-2 1-2z" fill="#D0CA8D"/><path d="M135 35l3 1-1 2 1 3-1.688-.438c-2.426-.59-4.861-1.085-7.312-1.562v-1l2.438-.375L134 37l1-2z" fill="#B7B062"/><path d="M183 240l2 1-1 8h-2c-.625-2.813-.625-2.813-1-6l2-3z" fill="#181615"/><path d="M188 226l3 1c-.75 4.75-.75 4.75-3 7a176.79 176.79 0 01-1-7l1-1z" fill="#242113"/><path d="M157 208h2l3 9c-2.5-1.688-2.5-1.688-5-4-.313-2.75-.313-2.75 0-5z" fill="#373311"/><path d="M221 190h1c-.75 7.625-.75 7.625-3 11-.25-7.625-.25-7.625 2-11z" fill="#C8BD85"/><path d="M142 182l3 1c.688 2.063.688 2.063 1 4h-2v2h-2v-7z" fill="#20200B"/><path d="M225 158l4 2-3 1-1 3-4-2 4-4z" fill="#C2BB77"/><path d="M225 154h2c-1.35 4.419-3.261 6.343-7 9l-1-2 2.438-2.375c2.549-2.345 2.549-2.345 3.562-4.625z" fill="#262506"/><path d="M103 91l6 1 1 3-6 1-1-5z" fill="#222016"/><path d="M146 72h5l-1 3 2 2-5 1 1-5-2-1z" fill="#B1AA7F"/><path d="M171.063 68.25L173 69l1 3-5 1-2-4c2-1 2-1 4.063-.75z" fill="#CAC47B"/><path d="M205 62c2.75.25 2.75.25 5 1v2l-9 1c1.688-2.063 1.688-2.063 4-4z" fill="#231E07"/><path d="M190 55c2.875-.188 2.875-.188 6 0l2 3c-2.313.625-2.313.625-5 1l-3-2v-2z" fill="#C9C16B"/><path d="M212 33h1l1 8-3 1c-.098-6.152-.098-6.152 0-8l1-1z" fill="#2D2B10"/><path d="M118 36h4l-1 5h-5l2-1v-4z" fill="#2A2609"/><path d="M170 28l3 3-5 3-3-3 5-3z" fill="#BFB777"/><path d="M146 19l6 1v3c-2.5 1.688-2.5 1.688-5 3l1-4-2-1v-2z" fill="#B0AE7C"/><path d="M221 264l5 2v3l-5 1v-2l-3-2h3v-2z" fill="#2E2E21"/><path d="M171 210c2 1 2 1 2.633 2.848l.492 2.214.508 2.223L175 219l-4-2v-7z" fill="#BAB577"/><path d="M215 183l2 1c-.557 3.344-1.352 6.033-3 9-1.467-3.815-.433-6.29 1-10z" fill="#BAB67C"/><path d="M224 119c2.834 3.203 3.52 5.78 4 10-2-1.625-2-1.625-4-4-.25-3.25-.25-3.25 0-6z" fill="#343116"/><path d="M115 113l-2 4-4-2v-2c2.49-1.245 3.41-.777 6 0z" fill="#D6CC80"/><path d="M126 86l1 3h-7l-1-2c2.463-1.231 4.28-1.072 7-1z" fill="#D0C78F"/><path d="M107 63c2.343.256 4.678.593 7 1l1 2c-2.313.625-2.313.625-5 1l-3-2v-2z" fill="#D1CA84"/><path d="M169 52a101.38 101.38 0 016 2l1 2-4 1-3-5zm-1 2l2 1z" fill="#D7CA6C"/><path d="M178 47l3 1c.688 2.063.688 2.063 1 4h-7l3-5z" fill="#C3B974"/><path d="M123 45c1.063 1.813 1.063 1.813 2 4l-1 3-4-1 1-4h2v-2z" fill="#D4CB8D"/><path d="M191 40c-.313 1.875-.313 1.875-1 4l-3 2-3-2c4.75-4 4.75-4 7-4z" fill="#483D18"/><path d="M181 24c1.583-.054 3.166-.093 4.75-.125l2.672-.07c2.692.204 4.277.83 6.578 2.195h-3l-1 2-2-2c-2.655-.565-5.291-.738-8-1v-1z" fill="#3D3917"/><path d="M175 18h4l.313 1.938L180 22l3 1h-8l1-2h2v-2l-3-1z" fill="#1F1F0C"/><path d="M166 258c0 3.106-.54 4.353-2 7l-4-1 6-6z" fill="#BCB976"/><path d="M207 242h7c-.375 2.438-.375 2.438-1 5l-2 1-1-3 1-1-4-2z" fill="#B3AC86"/><path d="M109 225c3.161 1.37 3.993 1.99 6 5l-3 1v-3h-5l2-1v-2z" fill="#343017"/><path d="M224 193c1 3 1 3 .063 5.188L223 200h-3l1-5h3v-2z" fill="#23220C"/><path d="M146 171l5 1 1 5-2 1c-4-4.75-4-4.75-4-7z" fill="#D7CC84"/><path d="M147 164c2.154 2.622 3.4 4.644 4 8h-3v-4l-2-1 1-3z" fill="#C1BD7C"/><path d="M231 161h2c-1.875 5.75-1.875 5.75-3 8h-2c.547-3.375 1.055-5.082 3-8z" fill="#BCB379"/><path d="M145 154h2c2 5.625 2 5.625 2 9h-2l-2-9z" fill="#1C1807"/><path d="M232 105h3l1 11c-2.152-3.228-2.2-4.284-2-8h-2v-3z" fill="#D0C780"/><path d="M194 89c2.938 1.313 2.938 1.313 6 3l1 3-5-1v-3h-2v-2z" fill="#27230C"/><path d="M139 70c-3.858 2.153-6.551 3.393-11 3 3.818-3.028 6.186-4.494 11-3z" fill="#D4CA82"/><path d="M170 65c-3.944 2.63-3.944 2.63-7 3-2.25-.938-2.25-.938-4-2 7.429-2.429 7.429-2.429 11-1z" fill="#524A22"/><path d="M128 54c3.356.6 5.378 1.846 8 4h-6l-2-4z" fill="#2E2707"/><path d="M208 44l1 2c-1.25 1.563-1.25 1.563-3 3-2.188-.313-2.188-.313-4-1v-3l6-1z" fill="#DBD17F"/><path d="M123 37l2 2h-2l-1 6h-2c.75-5.75.75-5.75 3-8z" fill="#C4BD83"/><path d="M165 31l-1 3-6 1v-3c2.463-1.231 4.28-1.072 7-1z" fill="#3F330F"/><path d="M119 234h3l1 8c-2.154-2.622-3.4-4.644-4-8z" fill="#CEC88A"/><path d="M199 223l3 1c-2.53 3.092-5.225 3.91-9 5v-2l5-1 1-3z" fill="#2C280A"/><path d="M202 218c2.063.438 2.063.438 4 1-1.75 4.875-1.75 4.875-4 6a128.624 128.624 0 01-1-6l1-1z" fill="#221F17"/><path d="M227 179h1v7h-2l-1 2c.875-6.75.875-6.75 2-9z" fill="#211C05"/><path d="M229 148h1l-1 9-3 1 3-10z" fill="#AEA56E"/><path d="M101 87h7l-4 4-1-2h-2v-2z" fill="#1C1B04"/><path d="M155 74c2.125.938 2.125.938 4 2-2 2-2 2-4.625 2.125L152 78l1-3 2-1z" fill="#19150B"/><path d="M97 71h3l1 5-2 1-2-1v-5z" fill="#D6CD84"/><path d="M98 55c1.414 2.639 2.372 5.071 3 8l-3-1v-2l-2-1 2-4z" fill="#B3AC78"/><path d="M195 58c3.625-.188 3.625-.188 7 0l-1 2c-2.649.594-5.292.742-8 1l2-3z" fill="#282201"/><path d="M196 35h1l1 9-4 2 2-11z" fill="#5C5220"/><path d="M176 32c1.52 1.207 1.52 1.207 3 3 .074 2.262.074 2.262-.313 4.688l-.363 2.449L178 44h-1a823.685 823.685 0 01-1.063-5.438l-.597-3.058L175 33l1-1z" fill="#4D4118"/><path d="M156 31l2 1c.625 2.063.625 2.063 1 4-3.113 0-5.108-.174-8-1h3l2-4z" fill="#C6BF6B"/><path d="M140 12h2c3 4.385 3 4.385 3 7l-3-1v-2h-2v-4z" fill="#B9B48B"/></svg>